<svg xmlns="http://www.w3.org/2000/svg" viewBox="0 0 184.29 234.65"><defs><style>.cls-1{font-size:24px;font-family:Rubik-Light, Rubik;font-weight:300;}.cls-2{letter-spacing:-0.02em;}.cls-3{letter-spacing:0em;}.cls-4{letter-spacing:-0.01em;}.cls-5{letter-spacing:0em;}.cls-6,.cls-7{fill:#e6e6e6;}.cls-7{opacity:0.73;}.cls-8{fill:#7a4c08;}.cls-9{fill:#fff;}.cls-10{fill:gray;}.cls-11{fill:#81d4fa;}.cls-12{fill:#d9dbdb;}.cls-13{fill:#ffb031;}.cls-14{fill:#ff9433;}</style></defs><g id="Layer_2" data-name="Layer 2"><g id="Layer_1-2" data-name="Layer 1"><text class="cls-1" transform="translate(7.44 199.52)">Select a<tspan class="cls-2" x="86.66" y="0"> </tspan><tspan class="cls-3" x="92.33" y="0">th</tspan><tspan class="cls-4" x="115.13" y="0">r</tspan><tspan class="cls-3" x="123.19" y="0">ead</tspan><tspan x="9.85" y="28.8">to see d</tspan><tspan class="cls-5" x="96.18" y="28.8">e</tspan><tspan x="109.19" y="28.8">tails</tspan></text><circle class="cls-6" cx="91.3" cy="84.07" r="62.26" transform="translate(-32.7 89.18) rotate(-45)"/><path class="cls-7" d="M142.15,99V120a63.12,63.12,0,0,1-7.73,9V99h0V99c0-.15-3.79-3.27-6.68-5.63V92l3.49-.9a6.68,6.68,0,0,1,4.3.33,19.81,19.81,0,0,0,1.86.71V94.9c2.89,2.36,4.72,3.91,4.76,4.06V99Z"/><path class="cls-8" d="M134.42,99,89.24,125.68,44.06,99V99c0-.17,2.53-2.25,6.34-5.34l.1-.09C63,83.4,89.24,62.66,89.24,62.66S115.5,83.4,128,93.53c3.86,3.14,6.4,5.26,6.44,5.43A.19.19,0,0,1,134.42,99Z"/><path class="cls-9" d="M107.82,40.6H59.07a7.57,7.57,0,0,0-7.57,7.57v73.7a7.57,7.57,0,0,0,7.57,7.57h61.08a7.57,7.57,0,0,0,7.57-7.57V60.5Z"/><path class="cls-10" d="M107.82,52.93a7.57,7.57,0,0,0,7.57,7.57h12.33l-19.9-19.9Z"/><rect class="cls-11" x="63.03" y="53.05" width="22.21" height="22.21" rx="2.7"/><path class="cls-12" d="M105.58,81.44H65.23a2.17,2.17,0,0,0-2.17,2.17h0a2.17,2.17,0,0,0,2.17,2.17h40.35a2.17,2.17,0,0,0,2.17-2.17h0A2.17,2.17,0,0,0,105.58,81.44Z"/><path class="cls-12" d="M105.58,92.26H65.23a2.17,2.17,0,0,0-2.17,2.17h0a2.18,2.18,0,0,0,2.17,2.18h40.35a2.18,2.18,0,0,0,2.17-2.18h0A2.17,2.17,0,0,0,105.58,92.26Z"/><path class="cls-12" d="M87.26,102.76h-22a2.18,2.18,0,0,0-2.17,2.18h0a2.17,2.17,0,0,0,2.17,2.17h22a2.17,2.17,0,0,0,2.17-2.17h0A2.18,2.18,0,0,0,87.26,102.76Z"/><path class="cls-13" d="M134.42,99v43.35a5.52,5.52,0,0,1-5.51,5.5H49.55a5.5,5.5,0,0,1-5.49-5.5V99l45.18,26.64Z"/><path class="cls-14" d="M132.89,146.16l-29.08-29.08-14.57,8.59-14.58-8.59L45.58,146.16a5.48,5.48,0,0,0,4,1.72h79.36A5.49,5.49,0,0,0,132.89,146.16Z"/><path class="cls-11" d="M27.46,112.6A4.36,4.36,0,1,0,31.82,117,4.36,4.36,0,0,0,27.46,112.6Zm0,6.12A1.76,1.76,0,1,1,29.22,117,1.76,1.76,0,0,1,27.46,118.72Z"/><path class="cls-11" d="M144.21,130.23a4.36,4.36,0,1,0,4.35,4.36A4.36,4.36,0,0,0,144.21,130.23Zm0,6.12a1.77,1.77,0,1,1,1.76-1.76A1.76,1.76,0,0,1,144.21,136.35Z"/><path class="cls-11" d="M179.85,62.56a3.34,3.34,0,1,0,3.33,3.34A3.35,3.35,0,0,0,179.85,62.56Zm0,4.69a1.35,1.35,0,1,1,1.35-1.35A1.34,1.34,0,0,1,179.85,67.25Z"/><path class="cls-11" d="M121.11,9.2a3.53,3.53,0,1,0,3.53,3.53A3.53,3.53,0,0,0,121.11,9.2Zm0,5a1.43,1.43,0,1,1,1.43-1.43A1.43,1.43,0,0,1,121.11,14.16Z"/><path class="cls-11" d="M8.29,91.38A3.71,3.71,0,1,0,12,95.09,3.71,3.71,0,0,0,8.29,91.38Z"/><path class="cls-11" d="M157.07,103.66a2.7,2.7,0,1,0,2.7,2.69A2.69,2.69,0,0,0,157.07,103.66Z"/><path class="cls-11" d="M67.75,10.31a3.94,3.94,0,1,0,3.94,3.94A3.95,3.95,0,0,0,67.75,10.31Z"/><path class="cls-11" d="M88.86,153.1A2.87,2.87,0,1,0,91.73,156,2.88,2.88,0,0,0,88.86,153.1Z"/><path class="cls-11" d="M144.46,25.52a3.37,3.37,0,1,0,3.37,3.37A3.37,3.37,0,0,0,144.46,25.52Z"/><circle class="cls-11" cx="25.04" cy="53.65" r="1.92"/><path class="cls-11" d="M181,45.75A3.28,3.28,0,1,0,184.29,49,3.28,3.28,0,0,0,181,45.75Z"/><circle class="cls-11" cx="6.45" cy="65.17" r="2.09"/><path class="cls-11" d="M94.27,3.31,95.59,2a1.19,1.19,0,0,0,0-1.66,1.19,1.19,0,0,0-1.66,0L92.62,1.65,91.31.34a1.19,1.19,0,0,0-1.66,0,1.19,1.19,0,0,0,0,1.66L91,3.31,89.65,4.62a1.17,1.17,0,1,0,1.66,1.65L92.62,5l1.31,1.31a1.17,1.17,0,1,0,1.66-1.65Z"/><path class="cls-11" d="M5,43l1.31-1.32a1.16,1.16,0,0,0,0-1.65,1.18,1.18,0,0,0-1.65,0L3.31,41.3,2,40A1.19,1.19,0,0,0,.34,40a1.18,1.18,0,0,0,0,1.65L1.65,43,.34,44.27A1.17,1.17,0,0,0,2,45.92l1.31-1.31,1.31,1.31a1.17,1.17,0,0,0,1.65-1.65Z"/><path class="cls-11" d="M159.71,123.07l1.11-1.11a1,1,0,1,0-1.4-1.4l-1.11,1.11-1.11-1.11a1,1,0,0,0-1.4,0,1,1,0,0,0,0,1.4l1.11,1.11-1.11,1.11a1,1,0,0,0,1.4,1.41l1.11-1.12,1.11,1.12a1,1,0,0,0,1.4,0,1,1,0,0,0,0-1.41Z"/></g></g></svg>